<svg id="visual" viewBox="0 0 960 300" width="960" height="300" xmlns="http://www.w3.org/2000/svg" xmlns:xlink="http://www.w3.org/1999/xlink" version="1.1"><rect x="0" y="0" width="960" height="300" fill="#001fff"></rect><g transform="translate(502.6891347676951 148.7520566650057)"><path d="M111.4 -160.6C142 -153.6 162.9 -118.8 161.2 -84.7C159.5 -50.6 135.2 -17.3 121.3 11.2C107.4 39.7 104 63.4 93.1 86.8C82.3 110.2 64.1 133.3 38.7 148.2C13.3 163.1 -19.3 169.8 -45.3 159.7C-71.3 149.6 -90.8 122.6 -125.5 99.4C-160.2 76.2 -210 56.8 -206.5 34C-203.1 11.3 -146.3 -14.8 -119.7 -47C-93 -79.1 -96.5 -117.4 -81.6 -131.6C-66.7 -145.8 -33.3 -135.9 3.5 -141.3C40.4 -146.8 80.7 -167.6 111.4 -160.6" fill="#6245af"></path></g></svg>