<svg id="visual" viewBox="0 0 960 300" width="960" height="300" xmlns="http://www.w3.org/2000/svg" xmlns:xlink="http://www.w3.org/1999/xlink" version="1.1"><rect x="0" y="0" width="960" height="300" fill="#001fff"></rect><g transform="translate(488.7381610197854 158.13192303957476)"><path d="M60.5 -110.4C85.5 -78.1 117.8 -73.3 131.7 -56.2C145.6 -39.1 141.1 -9.8 137.1 19.9C133.1 49.5 129.7 79.5 117.6 112.6C105.6 145.8 84.9 182.3 55.7 191.9C26.5 201.5 -11.3 184.2 -47 169.5C-82.8 154.7 -116.6 142.5 -128.1 117.5C-139.5 92.5 -128.7 54.7 -134.7 18.8C-140.7 -17.1 -163.6 -51.1 -157.6 -75.3C-151.7 -99.4 -116.9 -113.6 -85.9 -143.2C-54.8 -172.7 -27.4 -217.6 -4.8 -210.1C17.7 -202.6 35.5 -142.7 60.5 -110.4" fill="#6245af"></path></g></svg>