<svg id="visual" viewBox="0 0 960 300" width="960" height="300" xmlns="http://www.w3.org/2000/svg" xmlns:xlink="http://www.w3.org/1999/xlink" version="1.1"><rect x="0" y="0" width="960" height="300" fill="#87CEEB"></rect><path d="M0 89L20 100.8C40 112.7 80 136.3 120 136C160 135.7 200 111.3 240 112.3C280 113.3 320 139.7 360 157C400 174.3 440 182.7 480 179.5C520 176.3 560 161.7 600 148.5C640 135.3 680 123.7 720 111.5C760 99.3 800 86.7 840 84.8C880 83 920 92 940 96.5L960 101L960 0L940 0C920 0 880 0 840 0C800 0 760 0 720 0C680 0 640 0 600 0C560 0 520 0 480 0C440 0 400 0 360 0C320 0 280 0 240 0C200 0 160 0 120 0C80 0 40 0 20 0L0 0Z" fill="#4b4bef"></path><path d="M0 74L20 79.5C40 85 80 96 120 104.2C160 112.3 200 117.7 240 117.3C280 117 320 111 360 104.7C400 98.3 440 91.7 480 97C520 102.3 560 119.7 600 121.5C640 123.3 680 109.7 720 113C760 116.3 800 136.7 840 137C880 137.3 920 117.7 940 107.8L960 98L960 0L940 0C920 0 880 0 840 0C800 0 760 0 720 0C680 0 640 0 600 0C560 0 520 0 480 0C440 0 400 0 360 0C320 0 280 0 240 0C200 0 160 0 120 0C80 0 40 0 20 0L0 0Z" fill="#007bff"></path><path d="M0 107L20 101.2C40 95.3 80 83.7 120 83C160 82.3 200 92.7 240 101.7C280 110.7 320 118.3 360 121.3C400 124.3 440 122.7 480 116.3C520 110 560 99 600 93C640 87 680 86 720 82.3C760 78.7 800 72.3 840 78.2C880 84 920 102 940 111L960 120L960 0L940 0C920 0 880 0 840 0C800 0 760 0 720 0C680 0 640 0 600 0C560 0 520 0 480 0C440 0 400 0 360 0C320 0 280 0 240 0C200 0 160 0 120 0C80 0 40 0 20 0L0 0Z" fill="#009fff"></path><path d="M0 73L20 65.2C40 57.3 80 41.7 120 36.3C160 31 200 36 240 42.5C280 49 320 57 360 65.8C400 74.7 440 84.3 480 86.5C520 88.7 560 83.3 600 75.2C640 67 680 56 720 50.3C760 44.7 800 44.3 840 47.5C880 50.7 920 57.3 940 60.7L960 64L960 0L940 0C920 0 880 0 840 0C800 0 760 0 720 0C680 0 640 0 600 0C560 0 520 0 480 0C440 0 400 0 360 0C320 0 280 0 240 0C200 0 160 0 120 0C80 0 40 0 20 0L0 0Z" fill="#00bbf1"></path><path d="M0 55L20 54.3C40 53.7 80 52.3 120 46.8C160 41.3 200 31.7 240 33C280 34.3 320 46.7 360 53.2C400 59.7 440 60.3 480 57.2C520 54 560 47 600 40.3C640 33.7 680 27.3 720 22.2C760 17 800 13 840 18.8C880 24.7 920 40.3 940 48.2L960 56L960 0L940 0C920 0 880 0 840 0C800 0 760 0 720 0C680 0 640 0 600 0C560 0 520 0 480 0C440 0 400 0 360 0C320 0 280 0 240 0C200 0 160 0 120 0C80 0 40 0 20 0L0 0Z" fill="#00ced1"></path></svg>