<svg id="visual" viewBox="0 0 960 300" width="960" height="300" xmlns="http://www.w3.org/2000/svg" xmlns:xlink="http://www.w3.org/1999/xlink" version="1.1"><rect x="0" y="0" width="960" height="300" fill="#F08080"></rect><path d="M0 197L26.7 176.5C53.3 156 106.7 115 160 104.2C213.3 93.3 266.7 112.7 320 124.7C373.3 136.7 426.7 141.3 480 152.5C533.3 163.7 586.7 181.3 640 184C693.3 186.7 746.7 174.3 800 152.3C853.3 130.3 906.7 98.7 933.3 82.8L960 67L960 0L933.3 0C906.7 0 853.3 0 800 0C746.7 0 693.3 0 640 0C586.7 0 533.3 0 480 0C426.7 0 373.3 0 320 0C266.7 0 213.3 0 160 0C106.7 0 53.3 0 26.7 0L0 0Z" fill="#f30000"></path><path d="M0 123L26.7 134.2C53.3 145.3 106.7 167.7 160 159.8C213.3 152 266.7 114 320 109.5C373.3 105 426.7 134 480 142.3C533.3 150.7 586.7 138.3 640 135.3C693.3 132.3 746.7 138.7 800 130.8C853.3 123 906.7 101 933.3 90L960 79L960 0L933.3 0C906.7 0 853.3 0 800 0C746.7 0 693.3 0 640 0C586.7 0 533.3 0 480 0C426.7 0 373.3 0 320 0C266.7 0 213.3 0 160 0C106.7 0 53.3 0 26.7 0L0 0Z" fill="#f9422b"></path><path d="M0 48L26.7 52C53.3 56 106.7 64 160 84.8C213.3 105.7 266.7 139.3 320 138.5C373.3 137.7 426.7 102.3 480 85.5C533.3 68.7 586.7 70.3 640 88.7C693.3 107 746.7 142 800 155.5C853.3 169 906.7 161 933.3 157L960 153L960 0L933.3 0C906.7 0 853.3 0 800 0C746.7 0 693.3 0 640 0C586.7 0 533.3 0 480 0C426.7 0 373.3 0 320 0C266.7 0 213.3 0 160 0C106.7 0 53.3 0 26.7 0L0 0Z" fill="#fe624b"></path><path d="M0 158L26.7 138.2C53.3 118.3 106.7 78.7 160 63.7C213.3 48.7 266.7 58.3 320 78.8C373.3 99.3 426.7 130.7 480 141.7C533.3 152.7 586.7 143.3 640 132.7C693.3 122 746.7 110 800 108.7C853.3 107.3 906.7 116.7 933.3 121.3L960 126L960 0L933.3 0C906.7 0 853.3 0 800 0C746.7 0 693.3 0 640 0C586.7 0 533.3 0 480 0C426.7 0 373.3 0 320 0C266.7 0 213.3 0 160 0C106.7 0 53.3 0 26.7 0L0 0Z" fill="#ff7e6a"></path><path d="M0 90L26.7 88.2C53.3 86.3 106.7 82.7 160 80.2C213.3 77.7 266.7 76.3 320 77.2C373.3 78 426.7 81 480 79C533.3 77 586.7 70 640 70C693.3 70 746.7 77 800 81.8C853.3 86.7 906.7 89.3 933.3 90.7L960 92L960 0L933.3 0C906.7 0 853.3 0 800 0C746.7 0 693.3 0 640 0C586.7 0 533.3 0 480 0C426.7 0 373.3 0 320 0C266.7 0 213.3 0 160 0C106.7 0 53.3 0 26.7 0L0 0Z" fill="#ff9888"></path><path d="M0 84L26.7 85.3C53.3 86.7 106.7 89.3 160 84.8C213.3 80.3 266.7 68.7 320 59C373.3 49.3 426.7 41.7 480 41.5C533.3 41.3 586.7 48.7 640 50.3C693.3 52 746.7 48 800 45C853.3 42 906.7 40 933.3 39L960 38L960 0L933.3 0C906.7 0 853.3 0 800 0C746.7 0 693.3 0 640 0C586.7 0 533.3 0 480 0C426.7 0 373.3 0 320 0C266.7 0 213.3 0 160 0C106.7 0 53.3 0 26.7 0L0 0Z" fill="#ffb1a6"></path><path d="M0 27L26.7 28.5C53.3 30 106.7 33 160 31.2C213.3 29.3 266.7 22.7 320 21C373.3 19.3 426.7 22.7 480 29.8C533.3 37 586.7 48 640 55.2C693.3 62.3 746.7 65.7 800 63C853.3 60.3 906.7 51.7 933.3 47.3L960 43L960 0L933.3 0C906.7 0 853.3 0 800 0C746.7 0 693.3 0 640 0C586.7 0 533.3 0 480 0C426.7 0 373.3 0 320 0C266.7 0 213.3 0 160 0C106.7 0 53.3 0 26.7 0L0 0Z" fill="#ffcbc4"></path><path d="M0 22L26.7 21C53.3 20 106.7 18 160 18.2C213.3 18.3 266.7 20.7 320 26.5C373.3 32.3 426.7 41.7 480 39.5C533.3 37.3 586.7 23.7 640 18.2C693.3 12.7 746.7 15.3 800 21C853.3 26.7 906.7 35.3 933.3 39.7L960 44L960 0L933.3 0C906.7 0 853.3 0 800 0C746.7 0 693.3 0 640 0C586.7 0 533.3 0 480 0C426.7 0 373.3 0 320 0C266.7 0 213.3 0 160 0C106.7 0 53.3 0 26.7 0L0 0Z" fill="#ffe4e1"></path></svg>