<svg id="visual" viewBox="0 0 960 300" width="960" height="300" xmlns="http://www.w3.org/2000/svg" xmlns:xlink="http://www.w3.org/1999/xlink" version="1.1"><rect x="0" y="0" width="960" height="300" fill="#B0C4DE"></rect><path d="M0 94L20 101.2C40 108.3 80 122.7 120 136.7C160 150.7 200 164.3 240 156.2C280 148 320 118 360 107.5C400 97 440 106 480 108.2C520 110.3 560 105.7 600 110.5C640 115.3 680 129.7 720 130.3C760 131 800 118 840 115.2C880 112.3 920 119.7 940 123.3L960 127L960 0L940 0C920 0 880 0 840 0C800 0 760 0 720 0C680 0 640 0 600 0C560 0 520 0 480 0C440 0 400 0 360 0C320 0 280 0 240 0C200 0 160 0 120 0C80 0 40 0 20 0L0 0Z" fill="#223130"></path><path d="M0 144L20 146.5C40 149 80 154 120 142.5C160 131 200 103 240 90.2C280 77.3 320 79.7 360 80.3C400 81 440 80 480 87C520 94 560 109 600 108.2C640 107.3 680 90.7 720 87.5C760 84.3 800 94.7 840 102.5C880 110.3 920 115.7 940 118.3L960 121L960 0L940 0C920 0 880 0 840 0C800 0 760 0 720 0C680 0 640 0 600 0C560 0 520 0 480 0C440 0 400 0 360 0C320 0 280 0 240 0C200 0 160 0 120 0C80 0 40 0 20 0L0 0Z" fill="#375557"></path><path d="M0 73L20 74C40 75 80 77 120 73.5C160 70 200 61 240 55.8C280 50.7 320 49.3 360 52.5C400 55.7 440 63.3 480 73C520 82.7 560 94.3 600 101.5C640 108.7 680 111.3 720 100.2C760 89 800 64 840 58.5C880 53 920 67 940 74L960 81L960 0L940 0C920 0 880 0 840 0C800 0 760 0 720 0C680 0 640 0 600 0C560 0 520 0 480 0C440 0 400 0 360 0C320 0 280 0 240 0C200 0 160 0 120 0C80 0 40 0 20 0L0 0Z" fill="#4e7c83"></path><path d="M0 71L20 64C40 57 80 43 120 39.5C160 36 200 43 240 52.7C280 62.3 320 74.7 360 82C400 89.3 440 91.7 480 81.8C520 72 560 50 600 38.3C640 26.7 680 25.3 720 29.3C760 33.3 800 42.7 840 49.2C880 55.7 920 59.3 940 61.2L960 63L960 0L940 0C920 0 880 0 840 0C800 0 760 0 720 0C680 0 640 0 600 0C560 0 520 0 480 0C440 0 400 0 360 0C320 0 280 0 240 0C200 0 160 0 120 0C80 0 40 0 20 0L0 0Z" fill="#68a4b5"></path><path d="M0 50L20 43.2C40 36.3 80 22.7 120 20C160 17.3 200 25.7 240 26.8C280 28 320 22 360 19.3C400 16.7 440 17.3 480 22.5C520 27.7 560 37.3 600 35.7C640 34 680 21 720 16.3C760 11.7 800 15.3 840 19C880 22.7 920 26.3 940 28.2L960 30L960 0L940 0C920 0 880 0 840 0C800 0 760 0 720 0C680 0 640 0 600 0C560 0 520 0 480 0C440 0 400 0 360 0C320 0 280 0 240 0C200 0 160 0 120 0C80 0 40 0 20 0L0 0Z" fill="#87ceeb"></path></svg>