<svg id="visual" viewBox="0 0 960 300" width="960" height="300" xmlns="http://www.w3.org/2000/svg" xmlns:xlink="http://www.w3.org/1999/xlink" version="1.1"><rect x="0" y="0" width="960" height="300" fill="#FFF0F5"></rect><path d="M0 130L20 120.3C40 110.7 80 91.3 120 96.3C160 101.3 200 130.7 240 131.3C280 132 320 104 360 98.8C400 93.7 440 111.3 480 111.2C520 111 560 93 600 99C640 105 680 135 720 136.7C760 138.3 800 111.7 840 111C880 110.3 920 135.7 940 148.3L960 161L960 0L940 0C920 0 880 0 840 0C800 0 760 0 720 0C680 0 640 0 600 0C560 0 520 0 480 0C440 0 400 0 360 0C320 0 280 0 240 0C200 0 160 0 120 0C80 0 40 0 20 0L0 0Z" fill="#da5dd3"></path><path d="M0 92L20 97C40 102 80 112 120 111.7C160 111.3 200 100.7 240 106.8C280 113 320 136 360 130.8C400 125.7 440 92.3 480 88.8C520 85.3 560 111.7 600 119.5C640 127.3 680 116.7 720 110C760 103.3 800 100.7 840 101.2C880 101.7 920 105.3 940 107.2L960 109L960 0L940 0C920 0 880 0 840 0C800 0 760 0 720 0C680 0 640 0 600 0C560 0 520 0 480 0C440 0 400 0 360 0C320 0 280 0 240 0C200 0 160 0 120 0C80 0 40 0 20 0L0 0Z" fill="#d388e9"></path><path d="M0 120L20 117.2C40 114.3 80 108.7 120 108.3C160 108 200 113 240 107C280 101 320 84 360 74.7C400 65.3 440 63.7 480 60.7C520 57.7 560 53.3 600 49.8C640 46.3 680 43.7 720 52.7C760 61.7 800 82.3 840 90.8C880 99.3 920 95.7 940 93.8L960 92L960 0L940 0C920 0 880 0 840 0C800 0 760 0 720 0C680 0 640 0 600 0C560 0 520 0 480 0C440 0 400 0 360 0C320 0 280 0 240 0C200 0 160 0 120 0C80 0 40 0 20 0L0 0Z" fill="#d0abf6"></path><path d="M0 41L20 45.7C40 50.3 80 59.7 120 65C160 70.3 200 71.7 240 72C280 72.3 320 71.7 360 63.3C400 55 440 39 480 39.2C520 39.3 560 55.7 600 62.8C640 70 680 68 720 71.2C760 74.3 800 82.7 840 83.2C880 83.7 920 76.3 940 72.7L960 69L960 0L940 0C920 0 880 0 840 0C800 0 760 0 720 0C680 0 640 0 600 0C560 0 520 0 480 0C440 0 400 0 360 0C320 0 280 0 240 0C200 0 160 0 120 0C80 0 40 0 20 0L0 0Z" fill="#d6cafb"></path><path d="M0 18L20 22.3C40 26.7 80 35.3 120 33.8C160 32.3 200 20.7 240 17.3C280 14 320 19 360 25.5C400 32 440 40 480 43.3C520 46.7 560 45.3 600 43.2C640 41 680 38 720 32.5C760 27 800 19 840 20.2C880 21.3 920 31.7 940 36.8L960 42L960 0L940 0C920 0 880 0 840 0C800 0 760 0 720 0C680 0 640 0 600 0C560 0 520 0 480 0C440 0 400 0 360 0C320 0 280 0 240 0C200 0 160 0 120 0C80 0 40 0 20 0L0 0Z" fill="#e6e6fa"></path></svg>