<svg id="visual" viewBox="0 0 960 300" width="960" height="300" xmlns="http://www.w3.org/2000/svg" xmlns:xlink="http://www.w3.org/1999/xlink" version="1.1"><rect x="0" y="0" width="960" height="300" fill="#000000"></rect><defs><linearGradient id="grad1_0" x1="68.8%" y1="100%" x2="100%" y2="0%"><stop offset="-14.000000000000007%" stop-color="#6e849a" stop-opacity="1"></stop><stop offset="114.00000000000001%" stop-color="#6e849a" stop-opacity="1"></stop></linearGradient></defs><defs><linearGradient id="grad1_1" x1="68.8%" y1="100%" x2="100%" y2="0%"><stop offset="-14.000000000000007%" stop-color="#6e849a" stop-opacity="1"></stop><stop offset="114.00000000000001%" stop-color="#5b7086" stop-opacity="1"></stop></linearGradient></defs><defs><linearGradient id="grad1_2" x1="68.8%" y1="100%" x2="100%" y2="0%"><stop offset="-14.000000000000007%" stop-color="#485d72" stop-opacity="1"></stop><stop offset="114.00000000000001%" stop-color="#5b7086" stop-opacity="1"></stop></linearGradient></defs><defs><linearGradient id="grad1_3" x1="68.8%" y1="100%" x2="100%" y2="0%"><stop offset="-14.000000000000007%" stop-color="#485d72" stop-opacity="1"></stop><stop offset="114.00000000000001%" stop-color="#354b5f" stop-opacity="1"></stop></linearGradient></defs><defs><linearGradient id="grad1_4" x1="68.8%" y1="100%" x2="100%" y2="0%"><stop offset="-14.000000000000007%" stop-color="#233a4d" stop-opacity="1"></stop><stop offset="114.00000000000001%" stop-color="#354b5f" stop-opacity="1"></stop></linearGradient></defs><defs><linearGradient id="grad1_5" x1="68.8%" y1="100%" x2="100%" y2="0%"><stop offset="-14.000000000000007%" stop-color="#233a4d" stop-opacity="1"></stop><stop offset="114.00000000000001%" stop-color="#11293b" stop-opacity="1"></stop></linearGradient></defs><defs><linearGradient id="grad1_6" x1="68.8%" y1="100%" x2="100%" y2="0%"><stop offset="-14.000000000000007%" stop-color="#00192a" stop-opacity="1"></stop><stop offset="114.00000000000001%" stop-color="#11293b" stop-opacity="1"></stop></linearGradient></defs><defs><linearGradient id="grad1_7" x1="68.8%" y1="100%" x2="100%" y2="0%"><stop offset="-14.000000000000007%" stop-color="#00192a" stop-opacity="1"></stop><stop offset="114.00000000000001%" stop-color="#000000" stop-opacity="1"></stop></linearGradient></defs><defs><linearGradient id="grad2_0" x1="0%" y1="100%" x2="31.3%" y2="0%"><stop offset="-14.000000000000007%" stop-color="#6e849a" stop-opacity="1"></stop><stop offset="114.00000000000001%" stop-color="#6e849a" stop-opacity="1"></stop></linearGradient></defs><defs><linearGradient id="grad2_1" x1="0%" y1="100%" x2="31.3%" y2="0%"><stop offset="-14.000000000000007%" stop-color="#5b7086" stop-opacity="1"></stop><stop offset="114.00000000000001%" stop-color="#6e849a" stop-opacity="1"></stop></linearGradient></defs><defs><linearGradient id="grad2_2" x1="0%" y1="100%" x2="31.3%" y2="0%"><stop offset="-14.000000000000007%" stop-color="#5b7086" stop-opacity="1"></stop><stop offset="114.00000000000001%" stop-color="#485d72" stop-opacity="1"></stop></linearGradient></defs><defs><linearGradient id="grad2_3" x1="0%" y1="100%" x2="31.3%" y2="0%"><stop offset="-14.000000000000007%" stop-color="#354b5f" stop-opacity="1"></stop><stop offset="114.00000000000001%" stop-color="#485d72" stop-opacity="1"></stop></linearGradient></defs><defs><linearGradient id="grad2_4" x1="0%" y1="100%" x2="31.3%" y2="0%"><stop offset="-14.000000000000007%" stop-color="#354b5f" stop-opacity="1"></stop><stop offset="114.00000000000001%" stop-color="#233a4d" stop-opacity="1"></stop></linearGradient></defs><defs><linearGradient id="grad2_5" x1="0%" y1="100%" x2="31.3%" y2="0%"><stop offset="-14.000000000000007%" stop-color="#11293b" stop-opacity="1"></stop><stop offset="114.00000000000001%" stop-color="#233a4d" stop-opacity="1"></stop></linearGradient></defs><defs><linearGradient id="grad2_6" x1="0%" y1="100%" x2="31.3%" y2="0%"><stop offset="-14.000000000000007%" stop-color="#11293b" stop-opacity="1"></stop><stop offset="114.00000000000001%" stop-color="#00192a" stop-opacity="1"></stop></linearGradient></defs><defs><linearGradient id="grad2_7" x1="0%" y1="100%" x2="31.3%" y2="0%"><stop offset="-14.000000000000007%" stop-color="#000000" stop-opacity="1"></stop><stop offset="114.00000000000001%" stop-color="#00192a" stop-opacity="1"></stop></linearGradient></defs><g transform="translate(960, 300)"><path d="M-300 0C-300 -12.4 -300.1 -24.8 -294.8 -35.8C-289.6 -46.8 -279.2 -56.3 -277.7 -68.4C-276.2 -80.6 -283.7 -95.4 -280.5 -106.4C-277.3 -117.4 -263.3 -124.5 -255.9 -134.3C-248.5 -144.1 -247.5 -156.6 -243.6 -168.1C-239.7 -179.7 -232.8 -190.2 -223.8 -198.3C-214.8 -206.4 -203.9 -212.1 -194.3 -219.3C-184.7 -226.5 -176.6 -235.3 -167 -242C-157.4 -248.6 -146.4 -253.2 -136.2 -259.4C-125.9 -265.7 -116.5 -273.6 -105.7 -278.6C-94.8 -283.6 -82.5 -285.6 -70.4 -285.5C-58.2 -285.3 -46.3 -282.9 -34.6 -284.9C-22.9 -287 -11.4 -293.5 0 -300L0 0Z" fill="#001022"></path><path d="M-262.5 0C-262.5 -10.9 -262.5 -21.7 -258 -31.3C-253.4 -40.9 -244.3 -49.2 -243 -59.9C-241.7 -70.5 -248.3 -83.5 -245.4 -93.1C-242.6 -102.7 -230.4 -108.9 -223.9 -117.5C-217.4 -126.1 -216.6 -137.1 -213.2 -147.1C-209.7 -157.2 -203.7 -166.4 -195.8 -173.5C-188 -180.6 -178.4 -185.6 -170 -191.9C-161.6 -198.2 -154.5 -205.9 -146.1 -211.7C-137.7 -217.5 -128.1 -221.5 -119.1 -227C-110.2 -232.5 -102 -239.4 -92.5 -243.8C-83 -248.2 -72.2 -249.9 -61.6 -249.8C-51 -249.6 -40.5 -247.5 -30.3 -249.3C-20 -251.1 -10 -256.8 0 -262.5L0 0Z" fill="#072132"></path><path d="M-225 0C-225 -9.3 -225 -18.6 -221.1 -26.8C-217.2 -35.1 -209.4 -42.2 -208.3 -51.3C-207.2 -60.5 -212.8 -71.6 -210.4 -79.8C-208 -88 -197.5 -93.4 -191.9 -100.7C-186.3 -108.1 -185.6 -117.5 -182.7 -126.1C-179.8 -134.7 -174.6 -142.6 -167.9 -148.7C-161.1 -154.8 -152.9 -159.1 -145.7 -164.5C-138.5 -169.9 -132.4 -176.5 -125.3 -181.5C-118.1 -186.5 -109.8 -189.9 -102.1 -194.6C-94.5 -199.3 -87.4 -205.2 -79.3 -209C-71.1 -212.7 -61.9 -214.2 -52.8 -214.1C-43.7 -213.9 -34.7 -212.1 -25.9 -213.7C-17.2 -215.2 -8.6 -220.1 0 -225L0 0Z" fill="#1a3144"></path><path d="M-187.5 0C-187.5 -7.8 -187.5 -15.5 -184.3 -22.4C-181 -29.2 -174.5 -35.2 -173.6 -42.8C-172.6 -50.4 -177.3 -59.6 -175.3 -66.5C-173.3 -73.3 -164.6 -77.8 -159.9 -83.9C-155.3 -90.1 -154.7 -97.9 -152.3 -105.1C-149.8 -112.3 -145.5 -118.9 -139.9 -123.9C-134.3 -129 -127.4 -132.6 -121.4 -137.1C-115.5 -141.6 -110.4 -147.1 -104.4 -151.2C-98.4 -155.4 -91.5 -158.2 -85.1 -162.1C-78.7 -166.1 -72.8 -171 -66 -174.1C-59.3 -177.3 -51.6 -178.5 -44 -178.4C-36.4 -178.3 -28.9 -176.8 -21.6 -178.1C-14.3 -179.4 -7.2 -183.4 0 -187.5L0 0Z" fill="#2c4256"></path><path d="M-150 0C-150 -6.2 -150 -12.4 -147.4 -17.9C-144.8 -23.4 -139.6 -28.1 -138.8 -34.2C-138.1 -40.3 -141.9 -47.7 -140.3 -53.2C-138.6 -58.7 -131.7 -62.2 -127.9 -67.2C-124.2 -72.1 -123.8 -78.3 -121.8 -84.1C-119.8 -89.8 -116.4 -95.1 -111.9 -99.1C-107.4 -103.2 -101.9 -106 -97.1 -109.7C-92.4 -113.3 -88.3 -117.6 -83.5 -121C-78.7 -124.3 -73.2 -126.6 -68.1 -129.7C-63 -132.8 -58.3 -136.8 -52.8 -139.3C-47.4 -141.8 -41.2 -142.8 -35.2 -142.7C-29.1 -142.6 -23.1 -141.4 -17.3 -142.5C-11.4 -143.5 -5.7 -146.7 0 -150L0 0Z" fill="#3e5468"></path><path d="M-112.5 0C-112.5 -4.7 -112.5 -9.3 -110.6 -13.4C-108.6 -17.5 -104.7 -21.1 -104.1 -25.7C-103.6 -30.2 -106.4 -35.8 -105.2 -39.9C-104 -44 -98.8 -46.7 -96 -50.4C-93.2 -54 -92.8 -58.7 -91.4 -63.1C-89.9 -67.4 -87.3 -71.3 -83.9 -74.4C-80.6 -77.4 -76.4 -79.5 -72.9 -82.2C-69.3 -85 -66.2 -88.2 -62.6 -90.7C-59 -93.2 -54.9 -94.9 -51.1 -97.3C-47.2 -99.6 -43.7 -102.6 -39.6 -104.5C-35.6 -106.4 -30.9 -107.1 -26.4 -107C-21.8 -107 -17.4 -106.1 -13 -106.8C-8.6 -107.6 -4.3 -110.1 0 -112.5L0 0Z" fill="#51677c"></path><path d="M-75 0C-75 -3.1 -75 -6.2 -73.7 -8.9C-72.4 -11.7 -69.8 -14.1 -69.4 -17.1C-69.1 -20.2 -70.9 -23.9 -70.1 -26.6C-69.3 -29.3 -65.8 -31.1 -64 -33.6C-62.1 -36 -61.9 -39.2 -60.9 -42C-59.9 -44.9 -58.2 -47.5 -56 -49.6C-53.7 -51.6 -51 -53 -48.6 -54.8C-46.2 -56.6 -44.1 -58.8 -41.8 -60.5C-39.4 -62.2 -36.6 -63.3 -34 -64.9C-31.5 -66.4 -29.1 -68.4 -26.4 -69.7C-23.7 -70.9 -20.6 -71.4 -17.6 -71.4C-14.6 -71.3 -11.6 -70.7 -8.6 -71.2C-5.7 -71.7 -2.9 -73.4 0 -75L0 0Z" fill="#647a90"></path><path d="M-37.5 0C-37.5 -1.6 -37.5 -3.1 -36.9 -4.5C-36.2 -5.8 -34.9 -7 -34.7 -8.6C-34.5 -10.1 -35.5 -11.9 -35.1 -13.3C-34.7 -14.7 -32.9 -15.6 -32 -16.8C-31.1 -18 -30.9 -19.6 -30.5 -21C-30 -22.5 -29.1 -23.8 -28 -24.8C-26.9 -25.8 -25.5 -26.5 -24.3 -27.4C-23.1 -28.3 -22.1 -29.4 -20.9 -30.2C-19.7 -31.1 -18.3 -31.6 -17 -32.4C-15.7 -33.2 -14.6 -34.2 -13.2 -34.8C-11.9 -35.5 -10.3 -35.7 -8.8 -35.7C-7.3 -35.7 -5.8 -35.4 -4.3 -35.6C-2.9 -35.9 -1.4 -36.7 0 -37.5L0 0Z" fill="#6e849a"></path></g><g transform="translate(0, 0)"><path d="M300 0C294 11.4 288.1 22.8 286.9 34.8C285.7 46.9 289.4 59.6 286.4 70.6C283.5 81.6 273.9 90.9 270.2 102.5C266.5 114.1 268.7 127.9 264.8 139C260.8 150 250.8 158.3 242.8 167.6C234.8 176.8 228.9 187.1 221.6 196.3C214.2 205.5 205.4 213.7 196.9 222.3C188.4 230.9 180.2 239.9 170.4 246.9C160.6 253.9 149.2 259 137.6 262.1C125.9 265.2 113.9 266.4 103.2 272.1C92.4 277.7 82.9 287.9 71.6 290.3C60.2 292.8 47.2 287.5 35 287.9C22.7 288.2 11.4 294.1 0 300L0 0Z" fill="#001022"></path><path d="M262.5 0C257.3 10 252 19.9 251 30.5C250 41 253.2 52.1 250.6 61.8C248 71.4 239.7 79.5 236.4 89.7C233.2 99.8 235.1 111.9 231.7 121.6C228.2 131.3 219.4 138.5 212.4 146.6C205.5 154.7 200.3 163.7 193.9 171.7C187.4 179.8 179.8 187 172.3 194.5C164.9 202 157.7 209.9 149.1 216C140.5 222.2 130.6 226.6 120.4 229.3C110.2 232.1 99.7 233.1 90.3 238.1C80.9 243 72.5 251.9 62.6 254C52.7 256.2 41.3 251.6 30.6 251.9C19.9 252.2 9.9 257.3 0 262.5L0 0Z" fill="#072132"></path><path d="M225 0C220.5 8.5 216 17.1 215.2 26.1C214.3 35.2 217 44.7 214.8 52.9C212.6 61.2 205.4 68.2 202.7 76.9C199.9 85.5 201.5 95.9 198.6 104.2C195.6 112.5 188.1 118.7 182.1 125.7C176.1 132.6 171.7 140.3 166.2 147.2C160.7 154.1 154.1 160.3 147.7 166.7C141.3 173.2 135.2 179.9 127.8 185.2C120.5 190.4 111.9 194.2 103.2 196.6C94.4 198.9 85.5 199.8 77.4 204.1C69.3 208.3 62.2 215.9 53.7 217.7C45.2 219.6 35.4 215.7 26.2 215.9C17.1 216.2 8.5 220.6 0 225L0 0Z" fill="#1a3144"></path><path d="M187.5 0C183.8 7.1 180 14.2 179.3 21.8C178.6 29.3 180.9 37.2 179 44.1C177.2 51 171.2 56.8 168.9 64.1C166.6 71.3 167.9 79.9 165.5 86.8C163 93.8 156.7 98.9 151.7 104.7C146.8 110.5 143.1 116.9 138.5 122.7C133.9 128.4 128.4 133.6 123.1 138.9C117.8 144.3 112.6 149.9 106.5 154.3C100.4 158.7 93.3 161.9 86 163.8C78.7 165.8 71.2 166.5 64.5 170.1C57.8 173.6 51.8 179.9 44.7 181.4C37.6 183 29.5 179.7 21.8 179.9C14.2 180.1 7.1 183.8 0 187.5L0 0Z" fill="#2c4256"></path><path d="M150 0C147 5.7 144 11.4 143.4 17.4C142.9 23.4 144.7 29.8 143.2 35.3C141.7 40.8 137 45.5 135.1 51.2C133.3 57 134.3 63.9 132.4 69.5C130.4 75 125.4 79.2 121.4 83.8C117.4 88.4 114.4 93.5 110.8 98.1C107.1 102.8 102.7 106.9 98.5 111.2C94.2 115.5 90.1 119.9 85.2 123.4C80.3 127 74.6 129.5 68.8 131C62.9 132.6 57 133.2 51.6 136C46.2 138.9 41.4 143.9 35.8 145.2C30.1 146.4 23.6 143.8 17.5 143.9C11.4 144.1 5.7 147.1 0 150L0 0Z" fill="#3e5468"></path><path d="M112.5 0C110.3 4.3 108 8.5 107.6 13.1C107.1 17.6 108.5 22.3 107.4 26.5C106.3 30.6 102.7 34.1 101.3 38.4C99.9 42.8 100.8 48 99.3 52.1C97.8 56.3 94 59.4 91 62.8C88.1 66.3 85.8 70.1 83.1 73.6C80.3 77.1 77 80.1 73.9 83.4C70.7 86.6 67.6 90 63.9 92.6C60.2 95.2 56 97.1 51.6 98.3C47.2 99.5 42.7 99.9 38.7 102C34.7 104.2 31.1 107.9 26.8 108.9C22.6 109.8 17.7 107.8 13.1 108C8.5 108.1 4.3 110.3 0 112.5L0 0Z" fill="#51677c"></path><path d="M75 0C73.5 2.8 72 5.7 71.7 8.7C71.4 11.7 72.3 14.9 71.6 17.6C70.9 20.4 68.5 22.7 67.6 25.6C66.6 28.5 67.2 32 66.2 34.7C65.2 37.5 62.7 39.6 60.7 41.9C58.7 44.2 57.2 46.8 55.4 49.1C53.6 51.4 51.4 53.4 49.2 55.6C47.1 57.7 45.1 60 42.6 61.7C40.2 63.5 37.3 64.7 34.4 65.5C31.5 66.3 28.5 66.6 25.8 68C23.1 69.4 20.7 72 17.9 72.6C15.1 73.2 11.8 71.9 8.7 72C5.7 72.1 2.8 73.5 0 75L0 0Z" fill="#647a90"></path><path d="M37.5 0C36.8 1.4 36 2.8 35.9 4.4C35.7 5.9 36.2 7.4 35.8 8.8C35.4 10.2 34.2 11.4 33.8 12.8C33.3 14.3 33.6 16 33.1 17.4C32.6 18.8 31.3 19.8 30.3 20.9C29.4 22.1 28.6 23.4 27.7 24.5C26.8 25.7 25.7 26.7 24.6 27.8C23.6 28.9 22.5 30 21.3 30.9C20.1 31.7 18.7 32.4 17.2 32.8C15.7 33.2 14.2 33.3 12.9 34C11.6 34.7 10.4 36 8.9 36.3C7.5 36.6 5.9 35.9 4.4 36C2.8 36 1.4 36.8 0 37.5L0 0Z" fill="#6e849a"></path></g></svg>